<svg xmlns="http://www.w3.org/2000/svg"  viewBox="0 0 100 100" width="100px" height="100px"><path fill="#c1e7e0" d="M86.458,57.157c1.135-2.155,1.785-4.605,1.785-7.21c0-6.621-4.159-12.257-10.001-14.478 c0-0.008,0.001-0.015,0.001-0.022c0-11.598-9.402-21-21-21c-9.784,0-17.981,6.701-20.313,15.757 c-1.476-0.485-3.048-0.757-4.687-0.757c-7.692,0-14.023,5.793-14.89,13.252c-5.204,1.1-9.11,5.716-9.11,11.248 c0,6.351,5.149,11.5,11.5,11.5c0.177,0,0.352-0.012,0.526-0.022c-0.004,0.175-0.026,0.346-0.026,0.522 c0,11.322,9.178,20.5,20.5,20.5c6.437,0,12.175-2.972,15.934-7.614c2.178,2.225,5.207,3.614,8.566,3.614 c4.65,0,8.674-2.65,10.666-6.518c1.052,0.334,2.171,0.518,3.334,0.518c6.075,0,11-4.925,11-11 C90.243,62.136,88.773,59.173,86.458,57.157z"/><path fill="#f7f6e9" d="M59.743,56.5c-2.485-0.053-4.5-2.068-4.5-4.553c0-2.333,1.782-4.229,4.055-4.455 c-0.022-0.181-0.055-0.358-0.055-0.545c0-2.485,2.015-4.5,4.5-4.5c1.438,0,2.703,0.686,3.527,1.736 c0.14-2.636,2.302-4.736,4.973-4.736c2.761,0,5,2.239,5,5c0,0.446-0.077,0.87-0.187,1.282c0.642-0.777,1.6-1.282,2.687-1.282 c1.781,0,3.234,1.335,3.455,3.055c0.181-0.022,0.358-0.055,0.545-0.055c2.485,0,4.5,2.015,4.5,4.5s-2.015,4.5-4.5,4.553h-9.5 H59.743z"/><path fill="#472b29" d="M72.246,38.5c3.033,0,5.5,2.467,5.5,5.5c0,0.016,0,0.031,0,0.047c0.602-0.355,1.29-0.547,2-0.547 c1.831,0,3.411,1.261,3.858,3.005c0.047-0.003,0.094-0.005,0.142-0.005c3.099,0,5.549,2.834,4.893,6.047 c-0.48,2.351-2.689,3.953-5.089,3.953H68.871c-0.276,0-0.5-0.224-0.5-0.5s0.224-0.5,0.5-0.5h14.718 c1.92,0,3.687-1.282,4.071-3.163c0.525-2.57-1.435-4.837-3.914-4.837c-0.117,0-0.23,0.017-0.343,0.032l-0.141,0.019 c-0.021,0.003-0.041,0.004-0.062,0.004c-0.246,0-0.462-0.185-0.495-0.437c-0.191-1.493-1.463-2.618-2.959-2.618 c-0.885,0-1.723,0.401-2.301,1.1c-0.098,0.118-0.241,0.182-0.386,0.182c-0.078,0-0.156-0.018-0.228-0.056 c-0.209-0.107-0.314-0.346-0.254-0.573c0.16-0.6,0.202-1.069,0.147-1.549c-0.24-2.127-1.959-3.909-4.092-4.088 c-2.551-0.215-4.725,1.728-4.859,4.246c-0.011,0.208-0.15,0.387-0.349,0.45c-0.05,0.016-0.101,0.024-0.152,0.024 c-0.15,0-0.296-0.069-0.392-0.192c-0.772-0.981-1.913-1.544-3.134-1.544c-2.206,0-4,1.794-4,4c0,0.117,0.017,0.23,0.032,0.343 l0.019,0.141c0.016,0.134-0.022,0.268-0.106,0.373c-0.084,0.105-0.207,0.172-0.34,0.185c-2.352,0.234-4.042,2.429-3.504,4.865 c0.408,1.853,2.174,3.093,4.072,3.093h5.952c0.276,0,0.5,0.224,0.5,0.5s-0.224,0.5-0.5,0.5h-5.938 c-2.467,0-4.708-1.704-5.115-4.138c-0.462-2.763,1.344-5.22,3.931-5.74c-0.002-0.04-0.003-0.081-0.003-0.122 c0-2.757,2.243-5,5-5c1.176,0,2.293,0.416,3.183,1.164C67.527,40.26,69.691,38.5,72.246,38.5L72.246,38.5z"/><path fill="#472b29" d="M73.743,45.947c1.403,0,2.609,0.999,2.913,2.341c0.367-0.222,0.786-0.341,1.212-0.341 c1.202,0,2.198,0.897,2.353,2.068c0.203-0.045,0.396-0.068,0.585-0.068c1.529,0,2.811,1.2,2.918,2.732 c0.009,0.138-0.094,0.257-0.232,0.267c-0.006,0-0.012,0-0.018,0c-0.13,0-0.24-0.101-0.249-0.232 c-0.089-1.271-1.151-2.268-2.419-2.268c-0.229,0-0.47,0.042-0.738,0.127c-0.022,0.007-0.045,0.01-0.067,0.01 c-0.055,0-0.11-0.02-0.156-0.054c-0.064-0.047-0.102-0.129-0.102-0.209c0-1.034-0.841-1.875-1.875-1.875 c-0.447,0-0.885,0.168-1.231,0.473c-0.047,0.041-0.106,0.063-0.165,0.063c-0.032,0-0.063-0.006-0.093-0.019 c-0.088-0.035-0.148-0.117-0.155-0.212c-0.102-1.292-1.191-2.305-2.479-2.305c-0.208,0-0.425,0.034-0.682,0.107 c-0.023,0.007-0.047,0.01-0.07,0.01c-0.109,0-0.207-0.073-0.239-0.182c-0.038-0.133,0.039-0.271,0.172-0.309 C73.226,45.987,73.487,45.947,73.743,45.947L73.743,45.947z"/><path fill="#fff" d="M14.648,49H4.743c-0.276,0-0.5-0.224-0.5-0.5s0.224-0.5,0.5-0.5h9.905c0.276,0,0.5,0.224,0.5,0.5 S14.925,49,14.648,49z"/><path fill="#fff" d="M17.743,49h-1c-0.276,0-0.5-0.224-0.5-0.5s0.224-0.5,0.5-0.5h1c0.276,0,0.5,0.224,0.5,0.5 S18.02,49,17.743,49z"/><path fill="#fff" d="M22.734,51h-8.991c-0.276,0-0.5-0.224-0.5-0.5s0.224-0.5,0.5-0.5h8.991c0.276,0,0.5,0.224,0.5,0.5 S23.01,51,22.734,51z"/><path fill="#fff" d="M11.743,51h-1c-0.276,0-0.5-0.224-0.5-0.5s0.224-0.5,0.5-0.5h1c0.276,0,0.5,0.224,0.5,0.5 S12.02,51,11.743,51z"/><path fill="#fff" d="M8.743,51h-2c-0.276,0-0.5-0.224-0.5-0.5s0.224-0.5,0.5-0.5h2c0.276,0,0.5,0.224,0.5,0.5 S9.02,51,8.743,51z"/><path fill="#fff" d="M14.743,53h-2c-0.276,0-0.5-0.224-0.5-0.5s0.224-0.5,0.5-0.5h2c0.276,0,0.5,0.224,0.5,0.5 S15.019,53,14.743,53z"/><path fill="#fff" d="M17.743,44c-0.177,0-0.823,0-1,0c-0.276,0-0.5,0.224-0.5,0.5s0.224,0.5,0.5,0.5 c0.177,0,0.823,0,1,0c0.276,0,0.5-0.224,0.5-0.5S18.019,44,17.743,44z"/><path fill="#fff" d="M17.743,46c-0.177,0-4.823,0-5,0c-0.276,0-0.5,0.224-0.5,0.5s0.224,0.5,0.5,0.5 c0.177,0,4.823,0,5,0c0.276,0,0.5-0.224,0.5-0.5S18.019,46,17.743,46z"/><path fill="#fff" d="M22.743,48c-0.177,0-2.823,0-3,0c-0.276,0-0.5,0.224-0.5,0.5s0.224,0.5,0.5,0.5 c0.177,0,2.823,0,3,0c0.276,0,0.5-0.224,0.5-0.5S23.019,48,22.743,48z"/><path fill="#fff" d="M88.743,66h-10c-0.276,0-0.5-0.224-0.5-0.5s0.224-0.5,0.5-0.5h10c0.276,0,0.5,0.224,0.5,0.5 S89.019,66,88.743,66z"/><path fill="#fff" d="M92.743,66h-2c-0.276,0-0.5-0.224-0.5-0.5s0.224-0.5,0.5-0.5h2c0.276,0,0.5,0.224,0.5,0.5 S93.019,66,92.743,66z"/><path fill="#fff" d="M97.743,68h-10c-0.276,0-0.5-0.224-0.5-0.5s0.224-0.5,0.5-0.5h10c0.276,0,0.5,0.224,0.5,0.5 S98.02,68,97.743,68z"/><path fill="#fff" d="M85.743,68h-1c-0.276,0-0.5-0.224-0.5-0.5s0.224-0.5,0.5-0.5h1c0.276,0,0.5,0.224,0.5,0.5 S86.019,68,85.743,68z"/><path fill="#fff" d="M82.618,68h-1.875c-0.276,0-0.5-0.224-0.5-0.5s0.224-0.5,0.5-0.5h1.875c0.276,0,0.5,0.224,0.5,0.5 S82.894,68,82.618,68z"/><path fill="#fff" d="M91.743,64h-5c-0.276,0-0.5-0.224-0.5-0.5s0.224-0.5,0.5-0.5h5c0.276,0,0.5,0.224,0.5,0.5 S92.02,64,91.743,64z"/><path fill="#fff" d="M88.743,70h-2c-0.276,0-0.5-0.224-0.5-0.5s0.224-0.5,0.5-0.5h2c0.276,0,0.5,0.224,0.5,0.5 S89.019,70,88.743,70z"/><g><polygon fill="#ea3e54" points="6.008,93.936 13.008,88.936 14.348,86.457 16.168,86.457 17.923,84.638 19.263,84.574 17.604,87.447 20.061,85.085 20.061,83.936 20.923,83.936 23.763,81.096 23.763,79.979 24.593,79.149 26.476,79.149 27.019,78.191 27.561,78.223 27.21,79.819 27.816,79.819 28.359,78.543 37.934,70.787 38.859,70.787 38.859,71.298 39.274,71.298 39.274,70.532 45.242,65.872 45.082,66.894 43.455,69.223 47.189,65.489 47.987,65.489 48.673,66.176 49.072,71.489 50.508,71.489 50.955,74.489 49.934,74.489 50.923,80.968 51.274,78.83 51.848,79.021 52.551,84.511 52.997,83.713 53.795,83.777 54.178,87.83 55.168,82.404 54.242,82.404 54.242,80.074 55.359,79.245 56.061,76.883 56.668,76.883 56.955,74.457 57.37,74.33 57.465,72.287 56.955,72 57.019,70.468 58.231,70.309 58.327,69.032 57.082,68.872 57.114,66.83 59.316,62.713 59.955,62.681 60.402,64.979 60.944,59.968 60.561,59.777 60.657,56.84 61.295,56.84 61.806,51.191 65.38,48.511 66.434,48.447 66.434,47.713 65.668,47.713 65.668,46.436 69.561,42.734 70.774,42.67 71.093,41.106 75.082,38.074 77.189,37.947 79.742,35.553 77.316,36.638 76.806,36.638 76.806,35.777 77.923,35.777 78.019,33.351 80.189,31.436 81.146,31.436 80.316,33.447 83.189,30.128 83.189,28.66 90.051,21.543 83.987,25.181 83.987,24.383 93.21,14.84 82.231,23.84 80.955,23.777 77.891,27.415 76.934,27.447 74.029,30.128 72.88,30.128 73.838,28.021 67.199,35.713 66.497,34.915 63.721,37.787 63.178,37.5 63.785,35.904 61.359,37.979 62.029,38.617 61.965,39.766 59.955,40.309 60.051,38.936 58.551,38.074 57.242,34.404 56.731,35.713 56.061,35.521 55.902,32.84 54.816,31.404 54.976,27.223 53.253,29.043 52.327,28.149 52.231,24.319 53.412,24.989 52.742,23.106 51.434,22.564 50.923,17.84 50.476,26.681 49.136,26.617 49.359,29.266 50.38,29.649 50.572,31.213 49.646,31.404 49.87,32.362 50.38,32.426 50.189,35.713 50.476,36.16 50.221,37.245 49.646,37.691 49.391,43.532 48.114,43.404 48.082,44.234 48.976,45.957 48.944,47.106 47.955,47.617 46.008,47.681 47.157,49.245 47.029,51.415 43.008,55.468 41.189,56.426 42.816,56.553 42.689,57.543 39.21,60.383 37.87,59.745 36.88,60.191 38.285,60.67 37.934,61.468 32.891,66.67 32.221,66.287 32.731,65.489 31.072,66.064 30.88,67.117 28.295,67.34 25.87,69.957 28.199,68.553 29.38,68.713 29.189,70.723 27.434,72.479 25.455,72.415 25.327,73.819 23.093,73.979 22.838,75.766 22.806,76.723 19.614,80.106 17.859,79.436 17.604,81.415"/><polygon fill="#f7f6e9" points="25.16,77.043 30.936,71.298 31.989,71.266 34.798,68.266 35.181,66.638 36.649,66.319 36.936,65.234 38.5,64.979 39.521,63.862 39.489,62.202 41.819,61.851 47.309,56.138 47.181,54.574 50.181,52.021 50.149,49.5 51.713,49.213 51.585,47.011 52.862,44.553 53.213,37.085 52.032,35.202 52.702,33.191 52.702,34.819 54.553,37.245 55.638,41.649 58.798,45.67 60.106,43.021 61.351,42.83 67.319,38.234 77.723,29.585 78.489,29.362 80.277,27.766 74.787,33.415 75.553,33.798 69.298,39.734 69.138,40.755 62.021,46.819 61.543,49.149 58.862,50.585 58.638,54.606 57.745,55.564 57.872,58.532 56.436,58.755 56.5,61.947 55.287,62.298 55.096,71.394 54.266,72.415 54.043,74.17 53.372,74.426 53.5,76.883 52.734,70.755 51.33,69.734 52.032,67.947 51.968,64.915 50.596,65.011 50.532,59.394 44.851,62.713 38.755,68.266 36.298,68.84 34,70.819 33.904,71.777"/><path fill="#472b29" d="M82.979,24.514v0.667v1.766l1.101-0.661l-1.619,1.679l-0.28,0.291v0.404v1.095l-0.589,0.681h-0.453 h-0.957h-0.378l-0.284,0.25l-2.17,1.915l-0.321,0.283l-0.017,0.427l-0.058,1.465h-0.156h-1v1v0.862v0.39l-0.784,0.048l-0.303,0.018 l-0.242,0.184L70.48,40.31l-0.299,0.228l-0.075,0.369l-0.164,0.806l-0.44,0.023l-0.369,0.019l-0.268,0.254l-3.894,3.702 l-0.311,0.296v0.429v1.277v0.082l-3.462,2.596l-0.356,0.267l-0.04,0.443l-0.428,4.739h-0.693l-0.032,0.967l-0.096,2.936 l-0.021,0.64l0.334,0.167l-0.123,1.138l-0.485,0.024l-0.565,0.028l-0.267,0.499l-2.202,4.117l-0.114,0.214l-0.004,0.242 l-0.032,2.043l-0.011,0.727l-0.017,0.002l-0.035,0.84l-0.064,1.532l-0.026,0.613l0.508,0.285l-0.034,0.724l-0.365,0.112 l-0.077,0.647l-0.183,1.543h-0.464l-0.213,0.715l-0.607,2.042l-0.85,0.631l-0.404,0.3v0.503v1.96l-0.402-3.14l-0.08-0.623 l-0.596-0.199l-0.574-0.191l-0.134-0.045l-0.358-2.347h1.017l-0.171-1.147l-0.447-3l-0.127-0.853H50.5h-0.508l-0.329-4.389 l-0.028-0.37l-0.262-0.262l-0.686-0.686l-0.293-0.293h-0.414h-0.798h-0.414l-0.293,0.293l-0.068,0.068l0.207-1.323l-1.994,1.557 l-5.968,4.66l-0.056,0.044h-0.669h-0.354l-0.275,0.223l-8.96,7.258l-0.724-0.043l-0.543-0.032l-0.622-0.037l-0.307,0.542 l-0.255,0.45h-1.3h-0.414l-0.293,0.293l-0.83,0.83l-0.293,0.293v0.414v0.703l-2.255,2.255h-0.448h-1v0.647l-1.186,0.057 l-0.396,0.019l-0.276,0.286l-1.46,1.514h-0.52l3.115-3.363l0.217-0.234l0.041-0.317l0.093-0.72l0.569,0.217l0.625,0.239 l0.459-0.487l3.192-3.383l0.259-0.275l0.013-0.378l0.03-0.903l0.133-0.935l1.429-0.102l0.848-0.06l0.077-0.846l0.042-0.465 l1.036,0.033l0.433,0.014l0.306-0.306l1.755-1.755l0.254-0.254l0.034-0.358l0.191-2.011l0.062-0.649l0.529-0.046l0.761-0.066 l0.137-0.752l0.01-0.055l0.521,0.298l0.674,0.385l0.54-0.557l5.043-5.202l0.125-0.129l0.072-0.164l0.201-0.457l0.302,0.144 l0.491-0.401l3.479-2.84l0.308-0.252l0.051-0.395l0.128-0.989l0.089-0.689l3.842-3.873l0.266-0.268l0.022-0.377l0.128-2.17 l0.021-0.36l-0.214-0.291l-0.025-0.035l0.05-0.002l0.225-0.007l0.2-0.103l0.989-0.511l0.525-0.271l0.016-0.59l0.032-1.149 l0.007-0.259l-0.119-0.23l-0.499-0.963l0.979,0.098l0.046-1.057l0.235-5.379l0.209-0.163l0.279-0.217l0.081-0.344l0.255-1.085 l0.097-0.413l-0.229-0.357l-0.111-0.173l0.172-2.962l0.025-0.422l0.273-0.057l-0.112-0.914l-0.192-1.564l-0.074-0.602l-0.568-0.213 l-0.429-0.161L50.22,27.67l0.2,0.01l0.888,0.042l0.011,0.452l0.01,0.41l0.295,0.285l0.926,0.894l0.726,0.701l0.591-0.624 l-0.058,1.527l-0.014,0.356l0.215,0.285l0.903,1.195l0.141,2.379l0.042,0.707l0.681,0.195l0.67,0.192l0.594,0.17l0.558,1.566 l0.124,0.348l0.32,0.184l0.957,0.55l-0.052,0.748l-0.098,1.401l1.356-0.366l2.011-0.543l0.698-0.188l0.04-0.722l0.064-1.149 l0.007-0.117l0.219,0.116l0.664,0.352l0.522-0.54l2.023-2.093l0.744,0.845l0.75-0.869l4.521-5.239h0.403h1.149h0.391l0.287-0.265 l2.631-2.429l0.586-0.02l0.445-0.015l0.287-0.34l2.744-3.259l0.781,0.039l0.385,0.019l0.298-0.245L82.979,24.514 M93.202,14.84 l-10.979,9l-1.277-0.064l-3.064,3.638l-0.957,0.032l-2.904,2.681h-1.149l0.958-2.106l-6.638,7.692l-0.702-0.798l-2.777,2.872 L63.17,37.5l0.606-1.596l-2.426,2.074l0.67,0.638l-0.064,1.149l-2.011,0.543l0.096-1.372l-1.5-0.862l-1.309-3.67l-0.511,1.309 l-0.67-0.192l-0.16-2.681l-1.085-1.436l0.16-4.181l-1.724,1.819l-0.926-0.894l-0.096-3.83l1.181,0.67l-0.67-1.883l-1.308-0.543 l-0.511-4.723l-0.447,8.84l-1.34-0.064l0.223,2.649l1.021,0.383l0.192,1.564l-0.926,0.191l0.223,0.957l0.511,0.064l-0.191,3.287 l0.287,0.447l-0.255,1.085l-0.574,0.447l-0.255,5.84l-1.277-0.128l-0.032,0.83l0.894,1.723l-0.032,1.149l-0.989,0.511L46,47.681 l1.149,1.564l-0.128,2.17L43,55.468l-1.819,0.957l1.628,0.128l-0.128,0.989l-3.479,2.84l-1.34-0.638l-0.989,0.447l1.404,0.479 l-0.351,0.798l-5.043,5.202l-0.67-0.383l0.511-0.798l-1.66,0.575l-0.192,1.053l-2.585,0.223l-2.426,2.617l2.33-1.404l1.181,0.16 l-0.191,2.011l-1.755,1.755l-1.979-0.064l-0.128,1.404l-2.234,0.16l-0.255,1.787l-0.032,0.957l-3.192,3.383l-1.755-0.67 l-0.255,1.979L6,93.936l7-5l1.34-2.479h1.819l1.755-1.819l1.34-0.064l-1.66,2.872l2.458-2.362v-1.149h0.862l2.84-2.84v-1.117 l0.83-0.83h1.883l0.542-0.957l0.543,0.032l-0.351,1.596h0.606l0.543-1.277l9.574-7.755h0.926v0.511h0.415v-0.766l5.968-4.66 l-0.16,1.021l-1.628,2.33l3.734-3.734h0.798l0.686,0.686l0.399,5.314H50.5l0.447,3h-1.021l0.989,6.479l0.351-2.138l0.574,0.191 l0.702,5.489l0.447-0.798l0.798,0.064l0.383,4.053l0.989-5.426h-0.926v-2.33l1.117-0.83l0.702-2.362h0.606l0.287-2.426l0.415-0.128 l0.096-2.043L56.947,72l0.064-1.532l1.213-0.16l0.096-1.277l-1.245-0.16l0.032-2.043l2.202-4.117l0.638-0.032l0.447,2.298 l0.542-5.011l-0.383-0.191l0.096-2.936h0.638l0.511-5.649l3.574-2.681l1.053-0.064v-0.734H65.66v-1.277l3.894-3.702l1.213-0.064 l0.319-1.564l3.989-3.032l2.106-0.128l2.553-2.394l-2.426,1.085h-0.511v-0.862h1.117l0.096-2.426l2.17-1.915h0.957l-0.83,2.011 l2.872-3.319V28.66l6.862-7.117l-6.064,3.638v-0.798L93.202,14.84L93.202,14.84z"/><path fill="#472b29" d="M74.927,32.587l-0.466,0.479c-0.111,0.114-0.161,0.275-0.134,0.432 c0.027,0.157,0.127,0.292,0.269,0.364l0.128,0.064l-5.738,5.445c-0.08,0.076-0.133,0.176-0.15,0.285l-0.131,0.838l-6.976,5.944 c-0.085,0.072-0.143,0.171-0.166,0.28l-0.432,2.1l-2.474,1.326c-0.154,0.082-0.253,0.239-0.263,0.413l-0.213,3.84l-0.77,0.825 c-0.091,0.098-0.14,0.229-0.134,0.363l0.108,2.521l-0.994,0.155c-0.247,0.038-0.428,0.254-0.423,0.504l0.056,2.808l-0.844,0.244 c-0.21,0.061-0.356,0.251-0.361,0.47l-0.188,8.924L53.91,72.1c-0.059,0.072-0.096,0.16-0.108,0.252l-0.168,1.318l-0.372-2.976 c-0.017-0.137-0.09-0.261-0.202-0.342l-1.092-0.794l0.561-1.427c0.024-0.062,0.036-0.127,0.035-0.193L52.5,64.904 c-0.003-0.137-0.062-0.266-0.163-0.359c-0.092-0.084-0.213-0.131-0.337-0.131c-0.012,0-0.023,0-0.035,0.001l-0.844,0.059 l-0.058-5.087c-0.002-0.178-0.099-0.342-0.254-0.429c-0.077-0.043-0.161-0.065-0.246-0.065c-0.087,0-0.174,0.023-0.252,0.068 l-5.681,3.319c-0.03,0.018-0.059,0.038-0.084,0.062l-6,5.466l-2.331,0.545c-0.078,0.018-0.151,0.055-0.213,0.108l-2.298,1.979 c-0.097,0.084-0.158,0.202-0.171,0.329l-0.071,0.708l-4.987,3.003l2.704-2.689l0.856-0.026c0.133-0.004,0.259-0.061,0.35-0.158 l2.809-3c0.06-0.064,0.102-0.142,0.122-0.227l0.311-1.321l1.16-0.252c0.183-0.04,0.329-0.179,0.377-0.361l0.204-0.772l1.244-0.203 c0.111-0.018,0.213-0.073,0.288-0.156l1.021-1.117c0.087-0.095,0.133-0.219,0.131-0.347l-0.023-1.221l1.896-0.286 c0.109-0.016,0.21-0.068,0.286-0.148l5.489-5.713c0.099-0.103,0.15-0.244,0.138-0.387l-0.107-1.308l2.805-2.387 c0.113-0.096,0.178-0.238,0.176-0.387l-0.027-2.099l1.149-0.211c0.248-0.046,0.423-0.269,0.409-0.521l-0.12-2.065l1.213-2.335 c0.033-0.064,0.052-0.135,0.056-0.207l0.351-7.468c0.003-0.058-0.005-0.115-0.021-0.17l0.402,0.526l1.06,4.303 c0.017,0.069,0.048,0.133,0.092,0.189l3.16,4.021c0.095,0.121,0.241,0.191,0.393,0.191c0.017,0,0.035-0.001,0.052-0.003 c0.171-0.018,0.321-0.122,0.397-0.276l1.193-2.416l0.988-0.152c0.083-0.013,0.162-0.047,0.229-0.098l5.983-4.607L74.927,32.587 M80.308,27.766h0.005H80.308z M80.308,27.766l-1.787,1.596l-0.766,0.223l-10.404,8.649l-5.968,4.596l-1.245,0.191L58.83,45.67 l-3.16-4.021l-1.085-4.404l-1.851-2.426v-1.628l-0.67,2.011l1.181,1.883l-0.351,7.468l-1.277,2.457l0.128,2.202L50.181,49.5 l0.032,2.521l-3,2.553l0.128,1.564l-5.489,5.713l-2.33,0.351l0.032,1.66l-1.021,1.117l-1.564,0.255l-0.287,1.085l-1.468,0.319 l-0.383,1.628l-2.809,3l-1.053,0.032l-5.777,5.745l8.745-5.266l0.096-0.957l2.298-1.979l2.457-0.574l6.096-5.553l5.681-3.319 l0.064,5.617L52,64.915l0.064,3.032l-0.702,1.787l1.404,1.021l0.766,6.128l-0.128-2.457l0.67-0.255l0.223-1.755l0.83-1.021 l0.191-9.096l1.213-0.351l-0.064-3.191l1.436-0.223l-0.128-2.968l0.894-0.957l0.224-4.021l2.681-1.436l0.479-2.33l7.117-6.064 l0.16-1.021l6.255-5.936l-0.766-0.383L80.308,27.766L80.308,27.766z"/><polygon fill="#472b29" points="31.766,63.335 32.101,62.473 33.936,61.58 32.787,63.223"/><path fill="#472b29" d="M41.021,72.303c0.016-0.048,0.75-1.835,0.75-1.835l0.973-0.207l-0.176,1.037L41.021,72.303z"/><polygon fill="#472b29" points="69.521,46.245 71.149,44.33 72.745,43.851 74.021,42.798 71.564,45.606"/><polygon fill="#472b29" points="75.362,25.149 76.415,23.394 79.511,20.872 76.798,24.479"/><polygon fill="#472b29" points="57.043,31.34 56.691,29.936 56.883,28.883 57.457,30.064"/><line x1="58.181" x2="59.851" y1="49.016" y2="48" fill="none" stroke="#472b29" stroke-linecap="round" stroke-linejoin="round" stroke-miterlimit="10" stroke-width=".5"/><polyline fill="none" stroke="#472b29" stroke-linecap="round" stroke-linejoin="round" stroke-miterlimit="10" stroke-width=".5" points="55.574,54.926 56.436,53.489 56.915,49.787"/><line x1="55.383" x2="55.515" y1="58.021" y2="56.264" fill="none" stroke="#472b29" stroke-linecap="round" stroke-linejoin="round" stroke-miterlimit="10" stroke-width=".5"/></g><g><path fill="#f7f6e9" d="M20.246,70h-3.003c-1.933-0.053-3.5-1.62-3.5-3.553c0-1.781,1.335-3.234,3.055-3.455 c-0.028-0.179-0.055-0.358-0.055-0.545c0-1.933,1.567-3.5,3.5-3.5c1.032,0,1.95,0.455,2.59,1.165 c0.384-1.808,1.987-3.165,3.91-3.165c2.209,0,4,1.791,4,4c0,0.191-0.03,0.374-0.056,0.558c0.428-0.344,0.965-0.558,1.556-0.558 c1.228,0,2.245,0.887,2.455,2.055c0.179-0.028,0.358-0.055,0.545-0.055c1.933,0,3.5,1.567,3.5,3.5s-1.567,3.5-3.5,3.553h-7.997 l0,0H20.246L20.246,70z"/><circle cx="25.746" cy="69.5" r=".5" fill="#472b29"/><path fill="#472b29" d="M13.411,67.157C13.916,68.889,15.615,70,17.419,70h3.324c0.276,0,0.5-0.224,0.5-0.5 s-0.224-0.5-0.5-0.5h-3.395c-1.243,0-2.435-0.701-2.886-1.859c-0.755-1.939,0.536-3.861,2.399-4.1 c0.134-0.018,0.255-0.088,0.336-0.196s0.115-0.244,0.094-0.377c-0.024-0.153-0.049-0.308-0.049-0.468c0-1.654,1.346-3,3-3 c0.85,0,1.638,0.355,2.219,1c0.125,0.139,0.321,0.198,0.5,0.148c0.182-0.049,0.321-0.195,0.36-0.379 C23.663,58.165,25.102,57,26.743,57c1.93,0,3.5,1.57,3.5,3.5c0,0.143-0.021,0.28-0.041,0.418 c-0.029,0.203,0.063,0.438,0.242,0.54s0.396,0.118,0.556-0.01C31.364,61.155,31.794,61,32.243,61 c0.966,0,1.792,0.691,1.963,1.644c0.048,0.267,0.296,0.446,0.569,0.405C34.928,63.025,35.083,63,35.243,63 c1.97,0,3.503,1.908,2.846,3.974C37.693,68.218,36.452,69,35.147,69h-7.404c-0.276,0-0.5,0.224-0.5,0.5s0.224,0.5,0.5,0.5h7.343 c1.92,0,3.687-1.282,4.071-3.163C39.682,64.267,37.722,62,35.243,62c-0.059,0-0.116,0.002-0.174,0.006 C34.655,60.82,33.532,60,32.243,60c-0.349,0-0.689,0.061-1.011,0.18C31.067,57.847,29.116,56,26.743,56 c-1.831,0-3.466,1.127-4.153,2.774C21.909,58.276,21.088,58,20.243,58c-2.206,0-4,1.794-4,4c0,0.048,0.001,0.095,0.004,0.142 C14.145,62.682,12.743,64.869,13.411,67.157z"/><path fill="#472b29" d="M22.743,69c0.159,0,0.841,0,1,0c0.276,0,0.5,0.224,0.5,0.5s-0.224,0.5-0.5,0.5 c-0.159,0-0.841,0-1,0c-0.276,0-0.5-0.224-0.5-0.5S22.467,69,22.743,69z"/></g></svg>